<svg width="120" height="120" viewBox="0 0 120 120" fill="none" xmlns="http://www.w3.org/2000/svg">
<path d="M108.094 78.9295C111.217 77.13 113.834 74.4125 115.661 71.0735C117.487 67.7345 118.453 63.9024 118.452 59.9955V59.9955C118.454 55.9355 117.411 51.9593 115.448 48.5344C113.484 45.1095 110.681 42.3782 107.368 40.6616C110.681 38.9444 113.484 36.2129 115.447 32.7881C117.41 29.3634 118.453 25.3875 118.452 21.3276V21.3276C118.452 15.6712 116.428 10.2464 112.827 6.24672C109.225 2.24701 104.34 1.87962e-06 99.2461 1.87962e-06H19.2139C16.6911 -0.00117425 14.1927 0.549613 11.8616 1.6209C9.53056 2.69219 7.41238 4.26298 5.6281 6.24355C3.84382 8.22412 2.42841 10.5757 1.46273 13.1638C0.497041 15.752 -1.10793e-07 18.5261 1.11524e-07 21.3276V21.3276C-0.000393882 25.3889 1.04315 29.3659 3.00798 32.7913C4.97282 36.2167 7.7773 38.9481 11.0919 40.6646C7.77751 42.3805 4.97312 45.1114 3.00828 48.5363C1.04344 51.9611 -0.000208214 55.9377 1.11524e-07 59.9985V59.9985C-0.000147444 64.2298 1.13279 68.3656 3.25478 71.88C5.37677 75.3945 8.39194 78.1288 11.917 79.7354C8.79439 81.5351 6.17699 84.2528 4.35037 87.5917C2.52376 90.9307 1.55812 94.7626 1.55883 98.6694V98.6694C1.55883 104.327 3.58257 109.752 7.18486 113.752C10.7872 117.753 15.6729 120 20.7673 120H100.805C105.897 119.996 110.78 117.747 114.38 113.746C117.979 109.746 120.001 104.322 120 98.6664V98.6664C120.001 94.4365 118.87 90.3017 116.75 86.7874C114.63 83.2731 111.617 80.538 108.094 78.9295V78.9295Z" fill="#C4C4C4"/>
</svg>
