<svg width="80" height="80" viewBox="0 0 80 80" fill="none" xmlns="http://www.w3.org/2000/svg">
<path d="M80 24.1221C80 10.7981 72.1137 0 62.3853 0C57.9781 0 53.9514 2.22068 50.8626 5.87555C47.7738 2.21513 43.745 0 39.3378 0C35.2413 0 31.4695 1.91534 28.4783 5.12977C25.491 1.91534 21.7072 0 17.6167 0C7.88828 0 0 10.7999 0 24.1221C0 30.2031 1.64497 35.7566 4.35538 40C1.64497 44.2433 0 49.7969 0 55.8779C0 69.2019 7.88828 80 17.6167 80C21.7152 80 25.4851 78.0847 28.4783 74.8702C31.4655 78.0847 35.2493 80 39.3378 80C43.745 80 47.7718 77.7793 50.8626 74.1244C53.9514 77.7849 57.9781 80 62.3853 80C72.1137 80 80 69.2001 80 55.8779C80 49.7969 78.357 44.2433 75.6466 40C78.357 35.7566 80 30.2031 80 24.1221Z" fill="#C4C4C4"/>
</svg>
