<svg width="120" height="120" viewBox="0 0 120 120" fill="none" xmlns="http://www.w3.org/2000/svg">
<path d="M107.142 59.6386C116.355 53.4777 121.405 45.8834 119.127 40.2322C116.849 34.5811 107.767 32.4105 96.6665 34.1618C101.812 23.1034 102.088 12.9083 96.6106 9.20294C91.5238 5.76347 82.883 8.86585 74.7168 16.2573C70.9114 5.97175 64.666 -0.709881 58.5239 0.0602335C51.9658 0.88242 47.4653 9.95936 46.8315 21.9852C37.1521 12.4807 26.3029 8.29032 20.6549 12.5712C15.7636 16.271 16.1237 25.2986 20.7889 35.1922C9.64935 35.5951 1.24581 39.3881 0.129065 45.3627C-1.02956 51.4578 5.71281 58.1066 16.3219 62.4203C5.98642 69.006 0.229573 77.4142 2.81206 83.4052C5.21865 88.9879 14.2057 90.931 25.147 89.0098C22.7209 99.6982 24.3318 108.622 29.9323 111.209C35.0331 113.569 42.1635 110.071 48.5709 102.902C51.3264 113.157 56.7371 120.135 62.7955 119.998C68.9683 119.856 74.1165 112.368 76.3165 101.68C85.5436 107.824 94.5949 109.628 99.1094 105.481C103.222 101.693 102.535 93.8991 98.0987 85.4114C108.831 86.6693 117.43 84.2987 119.526 78.7188C121.654 73.0347 116.455 65.5802 107.142 59.6386Z" fill="#C4C4C4"/>
</svg>
