<svg width="80" height="80" viewBox="0 0 80 80" fill="none" xmlns="http://www.w3.org/2000/svg">
<path d="M72.0625 52.6197C74.1444 51.42 75.8894 49.6083 77.1072 47.3823C78.3249 45.1563 78.9686 42.6016 78.9679 39.997V39.997C78.969 37.2903 78.2742 34.6396 76.9653 32.3563C75.6563 30.073 73.7876 28.2521 71.5788 27.1077C73.7873 25.9629 75.6558 24.1419 76.9647 21.8588C78.2736 19.5756 78.9686 16.925 78.9679 14.2184V14.2184C78.9679 10.4475 77.619 6.83095 75.2178 4.16448C72.8166 1.49801 69.5599 1.25308e-06 66.1641 1.25308e-06H12.8092C11.1274 -0.000782833 9.46182 0.366409 7.90777 1.0806C6.35371 1.79479 4.94159 2.84199 3.75207 4.16237C2.56255 5.48275 1.61894 7.05044 0.975151 8.77589C0.33136 10.5013 -7.3862e-08 12.3507 7.43494e-08 14.2184V14.2184C-0.000262588 16.9259 0.695431 19.5773 2.00532 21.8609C3.31521 24.1445 5.18487 25.9654 7.39457 27.1097C5.18501 28.2537 3.31542 30.0743 2.00552 32.3575C0.695626 34.6407 -0.000138809 37.2918 7.43494e-08 39.999V39.999C-9.82963e-05 42.8199 0.755196 45.5771 2.16985 47.92C3.58451 50.263 5.59463 52.0859 7.94463 53.1569C5.86293 54.3568 4.11799 56.1685 2.90025 58.3945C1.68251 60.6204 1.03874 63.1751 1.03922 65.7796V65.7796C1.03922 69.5511 2.38838 73.1681 4.78991 75.8349C7.19144 78.5018 10.4486 80 13.8449 80H67.2033C70.5983 79.9974 73.8535 78.4977 76.2531 75.8307C78.6527 73.1637 80.0005 69.5477 80 65.7776V65.7776C80.0007 62.9576 79.2464 60.2011 77.8331 57.8582C76.4198 55.5154 74.4112 53.692 72.0625 52.6197V52.6197Z" fill="#C4C4C4"/>
</svg>
